<svg width="16" height="13" viewBox="0 0 16 13" xmlns="http://www.w3.org/2000/svg">
    <g fill="#BDBDBD" fill-rule="nonzero">
        <path d="M13.654.462H2.346c-1.04 0-1.884.843-1.884 1.884v8.077c0 1.04.843 1.885 1.884 1.885h11.308c1.04 0 1.884-.844 1.884-1.885V2.346c0-1.04-.843-1.884-1.884-1.884zm0 1.076c.446 0 .808.362.808.808v8.077a.808.808 0 0 1-.808.808H2.346a.808.808 0 0 1-.808-.808V2.346c0-.446.362-.808.808-.808h11.308z"/>
        <path d="M12.516 2.729a.538.538 0 0 1 .66.85l-4.845 3.77a.538.538 0 0 1-.662 0l-4.846-3.77a.538.538 0 1 1 .661-.85L8 6.24l4.516-3.512z"/>
    </g>
</svg>
