<svg width="13" height="18" viewBox="0 0 13 18" xmlns="http://www.w3.org/2000/svg">
    <path d="M6.5 0C2.919 0 0 2.747 0 6.148c0 1.707.808 3.874 2.21 6.379l.05.09A45.844 45.844 0 0 0 5.402 17.4l.056.074c.242.33.63.525 1.043.525h.02a1.296 1.296 0 0 0 1.012-.51l.008-.011c1.126-1.503 2.278-3.216 3.25-4.95C12.192 10.023 13 7.855 13 6.147 13 2.747 10.081 0 6.5 0zm0 1.286c2.877 0 5.2 2.186 5.2 4.862 0 1.433-.744 3.43-2.048 5.757l-.048.087a44.557 44.557 0 0 1-3.052 4.646l-.052.07.004.006c-1.094-1.462-2.216-3.131-3.156-4.81C2.044 9.576 1.3 7.58 1.3 6.148c0-2.676 2.323-4.862 5.2-4.862z" fill="#BDBDBD" fill-rule="nonzero"/>
</svg>
