<svg width="60" height="12" viewBox="0 0 60 12" xmlns="http://www.w3.org/2000/svg">
    <g fill-rule="nonzero" fill="none">
        <path d="M37.654 5.921v.583c0 2.268-.615 3.26-3.087 3.26-.819 0-1.354-.22-1.7-.536v2.63h-1.37v-6c0-2.44.897-3.197 3.101-3.197 2.19 0 3.056.71 3.056 3.26zm-1.386.583V5.92c0-1.89-.284-2.157-1.701-2.157-1.402 0-1.717.267-1.717 2.079v.913c0 1.512.363 1.874 1.717 1.874 1.449.031 1.7-.3 1.7-2.126zM42.362 6.724c0 1.433.236 1.748 1.607 1.748h2.818l-1.15 1.134H43.97c-2.441 0-2.961-1.197-2.961-3.023v-.725c0-1.968.52-3.18 3.023-3.18 2.315 0 2.835 1.165 2.835 2.456v.189c0 1.228-.268 1.401-.929 1.401h-3.575zm0-1.055h3.229v-.44c0-1.15-.331-1.497-1.622-1.497-1.37.016-1.607.347-1.607 1.937zM47.685 9.575v-4.74c0-1.56.93-2.174 2.96-2.174 2.032 0 2.961.615 2.961 2.174v4.724h-1.354V5.12c0-.867-.095-1.324-1.606-1.324-1.512 0-1.607.457-1.607 1.323v4.457h-1.354zM27.67 2.835h-1.308l-1.118 1.134h2.425c1.528 0 1.67.44 1.67 1.29h-1.874c-1.811 0-2.646.568-2.646 2.032v.284c0 1.338.724 2 2.551 2h1.953c1.008 0 1.323-.284 1.323-1.118v-3.45c-.016-1.432-.898-2.172-2.977-2.172zm1.669 4.44v1.198H27.37c-.976 0-1.276-.3-1.276-.914v-.268c0-.724.3-.945 1.434-.945h1.811v.93zM17.26 8.394h-2.992c-1.37 0-1.607-.252-1.607-1.685h3.575c.662 0 .93-.174.93-1.402v-.189c0-1.291-.52-2.457-2.835-2.457-2.504 0-3.024 1.197-3.024 3.166v.724c0 1.843.52 3.024 2.96 3.024h1.812l1.18-1.181zm-2.992-4.662c1.275 0 1.622.331 1.622 1.496v.441H12.66c0-1.59.22-1.937 1.607-1.937zM58.142 5.622l-1.496-.142c-.835-.063-.945-.33-.945-.756 0-.55.299-.74 1.18-.74h1.639l1.102-1.102c-1.024-.032-1.827-.016-2.598-.016-1.859 0-2.599.693-2.599 1.874v.22c0 .835.473 1.638 1.764 1.749l1.559.141c.819.063.93.394.93.804 0 .661-.316.834-1.308.834h-2.016L54.22 9.622h3.087c1.827 0 2.693-.709 2.693-1.937v-.189c-.031-.787-.315-1.732-1.858-1.874zM39.67 1.748a.383.383 0 0 0 .377-.378V.3h-1.449v1.449h1.071zM39.622 2.866h-.976V9.56H40V3.244a.383.383 0 0 0-.378-.378zM22.142 4.425l-1.796-.299c-1.07-.173-1.244-.52-1.244-1.339 0-.976.363-1.26 1.89-1.26h2.016L24.22.316h-3.118c-2.504 0-3.354.93-3.354 2.425v.252c0 1.339.41 2.095 2.142 2.378l1.748.284c1.134.204 1.307.52 1.307 1.417 0 1.04-.504 1.323-2.205 1.323h-2.079L17.465 9.59h3.385c2.63 0 3.433-.835 3.433-2.489v-.22c.032-1.496-.52-2.19-2.141-2.457z" fill="#333D50"/>
        <path d="m4.394 10.614 4.85-4.85H5.748L0 11.528h2.157a3.076 3.076 0 0 0 2.237-.914z" fill="#F17158"/>
        <path fill="#37BCB5" d="M11.496 0H8.031L2.268 5.764h3.496z"/>
        <path fill="#1C9CA5" d="M2.268 5.764 8.03 0 5.764 5.764z"/>
        <path d="m4.41 10.614 4.85-4.85H5.764l-2.095 5.401c.268-.141.52-.33.74-.55z" fill="#DB5A47"/>
    </g>
</svg>
