<svg width="50" height="17" viewBox="0 0 50 17" xmlns="http://www.w3.org/2000/svg">
    <defs>
        <linearGradient x1="89.273%" y1="5.295%" x2="11.529%" y2="94.357%" id="qcy37ih43a">
            <stop stop-color="#77D9E2" offset="0%"/>
            <stop stop-color="#5E8EAC" offset="100%"/>
        </linearGradient>
        <linearGradient x1="50%" y1="0%" x2="50%" y2="100%" id="rkmmqi8txb">
            <stop stop-opacity="0" offset="0%"/>
            <stop stop-opacity=".177" offset="100%"/>
        </linearGradient>
        <linearGradient x1="50%" y1="0%" x2="50%" y2="100%" id="jl66k651mc">
            <stop stop-opacity="0" offset="0%"/>
            <stop stop-opacity=".177" offset="100%"/>
        </linearGradient>
        <linearGradient x1="50%" y1="0%" x2="50%" y2="100%" id="936u9wym7d">
            <stop stop-color="#FFF" offset="0%"/>
            <stop stop-color="#EEE" offset="100%"/>
        </linearGradient>
        <linearGradient x1="50%" y1="100%" x2="50%" y2="0%" id="4chgpdvd0e">
            <stop stop-color="#FFF" offset="0%"/>
            <stop stop-color="#EEE" offset="100%"/>
        </linearGradient>
    </defs>
    <g fill-rule="nonzero" fill="none">
        <path d="M25.015 4.097a.891.891 0 0 1 .332-.408.836.836 0 0 1 .454-.13c.236 0 .45.079.64.238a.744.744 0 0 1 .192.947l-4.205 8.811c-.175.35-.447.524-.817.524a.949.949 0 0 1-.624-.223.7.7 0 0 1-.27-.563c0-.113.032-.241.093-.385l1.048-2.203-2.865-5.96a.782.782 0 0 1-.077-.355c0-.236.1-.436.3-.6.2-.165.429-.247.685-.247.175 0 .334.043.478.13a.874.874 0 0 1 .339.409l2.156 4.76 2.141-4.745zm5.469 7.255c-1.12 0-2.023-.22-2.711-.662-.329-.195-.493-.472-.493-.832a.73.73 0 0 1 .17-.5.533.533 0 0 1 .415-.193c.175 0 .416.082.724.247.329.154.629.272.901.354.272.082.619.123 1.04.123.431 0 .767-.072 1.009-.216.241-.143.362-.344.362-.6a.579.579 0 0 0-.147-.416c-.097-.103-.272-.198-.523-.285a11.013 11.013 0 0 0-1.148-.3c-.914-.185-1.568-.447-1.964-.786-.395-.339-.593-.806-.593-1.402 0-.452.134-.86.4-1.224.268-.365.635-.647 1.102-.848.467-.2.999-.3 1.594-.3.432 0 .847.054 1.248.162.4.108.76.264 1.078.47.329.205.493.477.493.816a.79.79 0 0 1-.17.516.518.518 0 0 1-.415.208.833.833 0 0 1-.331-.07 4.444 4.444 0 0 1-.409-.207 6.459 6.459 0 0 0-.77-.347 2.402 2.402 0 0 0-.8-.115c-.38 0-.681.077-.902.23a.73.73 0 0 0-.331.632.64.64 0 0 0 .339.585c.226.134.662.267 1.31.401.687.144 1.226.308 1.617.493.39.185.67.416.84.693.168.277.253.632.253 1.063 0 .698-.29 1.258-.87 1.679-.58.42-1.353.631-2.318.631zm8.179 0c-.77 0-1.445-.159-2.026-.477a3.304 3.304 0 0 1-1.347-1.371c-.319-.596-.478-1.289-.478-2.08 0-.79.16-1.48.478-2.071a3.315 3.315 0 0 1 1.347-1.363c.58-.319 1.256-.478 2.026-.478.77 0 1.445.16 2.026.478.58.318 1.026.772 1.34 1.363.313.59.47 1.28.47 2.072 0 .79-.157 1.483-.47 2.079a3.256 3.256 0 0 1-1.34 1.37c-.58.32-1.256.478-2.026.478zm-.015-1.494c.626 0 1.103-.205 1.432-.616.329-.41.493-1.016.493-1.817 0-.791-.164-1.394-.493-1.81-.329-.416-.8-.624-1.417-.624-.616 0-1.091.208-1.425.624-.334.416-.5 1.019-.5 1.81 0 .8.164 1.406.492 1.817.329.41.801.616 1.418.616zm8.163 1.494c-1.119 0-2.023-.22-2.71-.662-.33-.195-.493-.472-.493-.832a.73.73 0 0 1 .169-.5.533.533 0 0 1 .416-.193c.174 0 .416.082.724.247.328.154.629.272.9.354.273.082.62.123 1.04.123.432 0 .768-.072 1.01-.216.24-.143.362-.344.362-.6a.579.579 0 0 0-.147-.416c-.097-.103-.272-.198-.523-.285a11.013 11.013 0 0 0-1.148-.3c-.914-.185-1.569-.447-1.964-.786s-.593-.806-.593-1.402c0-.452.133-.86.4-1.224.267-.365.635-.647 1.102-.848.467-.2.998-.3 1.594-.3.431 0 .847.054 1.248.162.4.108.76.264 1.078.47.329.205.493.477.493.816a.79.79 0 0 1-.17.516.518.518 0 0 1-.415.208.833.833 0 0 1-.332-.07 4.444 4.444 0 0 1-.408-.207 6.459 6.459 0 0 0-.77-.347 2.402 2.402 0 0 0-.8-.115c-.38 0-.681.077-.902.23a.73.73 0 0 0-.331.632.64.64 0 0 0 .339.585c.226.134.662.267 1.309.401.688.144 1.227.308 1.617.493.39.185.67.416.84.693.17.277.254.632.254 1.063 0 .698-.29 1.258-.87 1.679-.58.42-1.353.631-2.319.631z" fill="#5FB6CA"/>
        <g>
            <rect fill="url(#qcy37ih43a)" width="16.605" height="16.636" rx="8.303"/>
            <path d="m1.471 2.924 8.81.341A515.353 515.353 0 0 0 9.13 8.192c-.01.046.014-.115.002-.143L8.586 6.7c-.035-.09-.112-.147-.228-.17-.157-.006-2.591-.008-7.696-.017-.123.013-.205.069-.247.167l1.056-3.756z" fill="url(#rkmmqi8txb)" opacity=".6" transform="rotate(112 6.513 9.3)"/>
            <path d="m2.016-.101 1.265.016A182.19 182.19 0 0 0 1.644 2.34a.996.996 0 0 0-.062.442l-.028-.231.067-.391.395-2.262z" fill="url(#jl66k651mc)" opacity=".6" transform="rotate(112 3.422 5.317)"/>
            <path d="M.03.388C-.059.24.06.037.245.037h1.067c.28 0 .401.127.567.351.057.077 1.483 2.212 1.517 2.255.003.005.015.016.028.001l-.01.026c.124.199.51.795 1.158 1.789H2.659A629.44 629.44 0 0 1 .029.389z" fill="url(#936u9wym7d)" opacity=".75" style="mix-blend-mode:lighten" transform="translate(5.067 4.534)"/>
            <path d="M4.412.344c.048-.123.207-.307.42-.307h1.152c.09 0 .32.08.238.361-.065.164-1.016 2.52-2.867 7.032-.03.072-.097.23-.26.23H1.65c-.244 0-.194-.243-.16-.326.387-.973.777-1.924 1.14-2.797a.202.202 0 0 0 .015-.062c0-.02-.014-.057-.005-.044l.018.028C3.618 2.16 4.377.433 4.412.344z" fill="url(#4chgpdvd0e)" opacity=".7" transform="translate(5.067 4.534)"/>
        </g>
    </g>
</svg>
