<svg width="60" height="16" viewBox="0 0 60 16" xmlns="http://www.w3.org/2000/svg">
    <defs>
        <linearGradient x1="50%" y1="0%" x2="50%" y2="100%" id="3mahsoo83a">
            <stop stop-color="#FE9689" offset="0%"/>
            <stop stop-color="#FE3F87" offset="100%"/>
        </linearGradient>
    </defs>
    <g fill-rule="nonzero" fill="none">
        <g fill="#424242">
            <path d="M20.177 5.074c-.97 0-1.768.304-2.347.942V2.235h-2.26v10.748h2.159v-.898c.565.681 1.405 1.014 2.447 1.014 2.188 0 3.883-1.564 3.883-4.012 0-2.448-1.695-4.013-3.882-4.013zm-.102 6.17c-1.13 0-1.984-.81-1.984-2.158 0-1.347.855-2.158 1.984-2.158 1.13 0 1.985.811 1.985 2.158 0 1.348-.854 2.159-1.985 2.159zM30.288 5.19v3.853c0 1.434-.753 2.1-1.796 2.1-1 0-1.58-.58-1.58-1.884V5.19h-2.26v4.405c0 2.404 1.377 3.505 3.332 3.505a3.153 3.153 0 0 0 2.42-1.043v.927h2.143V5.19h-2.259zM38.834 5.19v3.853c0 1.434-.753 2.1-1.796 2.1-1 0-1.579-.58-1.579-1.884V5.19H33.2v4.405c0 2.404 1.376 3.505 3.332 3.505a3.153 3.153 0 0 0 2.419-1.043v.927h2.143V5.19h-2.259zM46.54 12.925c-.97 0-1.768-.304-2.347-.942v3.781h-2.26V5.016h2.159v.898c.565-.68 1.405-1.014 2.447-1.014 2.188 0 3.883 1.565 3.883 4.013s-1.695 4.012-3.882 4.012zm-.101-6.17c-1.13 0-1.985.81-1.985 2.158 0 1.347.855 2.158 1.985 2.158 1.13 0 1.984-.811 1.984-2.158 0-1.348-.854-2.159-1.984-2.159zM58.902 7.91c-.69-2.41-2.813-3.398-5.013-2.768-2.283.655-3.533 2.762-2.89 5.003.639 2.228 2.79 3.374 5.38 2.632 1.351-.388 2.276-1.105 2.745-2.098l-1.515-.922a2.642 2.642 0 0 1-1.673 1.263c-1.141.328-2.099-.016-2.575-.889l5.667-1.625c-.038-.185-.078-.43-.126-.597zM54.374 6.78a1.852 1.852 0 0 1 2.286 1.033l-3.69 1.058c-.123-1.005.416-1.807 1.404-2.09z"/>
        </g>
        <path d="M2.916 14.147A4.762 4.762 0 1 1 6.61 5.368a4.762 4.762 0 0 1-3.695 8.78zm1.97-2.521 1.158.61a.273.273 0 0 0 .34-.067.272.272 0 0 0 .06-.225l-.22-1.293a.278.278 0 0 1 .08-.245l.936-.916a.277.277 0 0 0-.153-.473l-1.295-.189a.277.277 0 0 1-.208-.15L5.004 7.5a.276.276 0 0 0-.495 0l-.58 1.176a.276.276 0 0 1-.207.15l-1.296.19a.278.278 0 0 0-.153.472l.937.917a.277.277 0 0 1 .08.245l-.221 1.294a.277.277 0 0 0 .272.325c.045 0 .089-.011.128-.032l1.159-.611a.276.276 0 0 1 .256 0h.002zM6.89 4.838a4.825 4.825 0 0 0-.382-.144v-1.32c0-.938-.761-1.699-1.7-1.7h-.052c-.938.001-1.699.762-1.7 1.7v1.318a5.388 5.388 0 0 0-1.675.92l.001-2.238A3.378 3.378 0 0 1 4.756 0h.052a3.378 3.378 0 0 1 3.374 3.374v2.238a5.39 5.39 0 0 0-1.291-.774z" fill="url(#3mahsoo83a)"/>
    </g>
</svg>
