<svg width="60" height="17" viewBox="0 0 60 17" xmlns="http://www.w3.org/2000/svg">
    <g fill="#8F5DBA" fill-rule="nonzero">
        <path d="m56.274 9.67 2.104 2.449H60l-2.56-2.965 2.33-2.883H58.14l-1.867 2.325v-5.12l-1.625.465.004 8.173h1.621V9.67zM49.99 6.941v-.667h-1.626l-.005.465.009 5.379h1.622v-3.99c.238-.408.66-.924 1.27-.924 1.012 0 1.064.997 1.064.997v3.914h1.39V7.663s-.256-1.685-2.126-1.615c0 .004-1.047.174-1.598.893zm-7.94.27 1.188-.862-.005-2.38 1.624-.48v1.923l.83-.569a1.14 1.14 0 1 1 .356.637l-3.557 2.427a3.145 3.145 0 1 1-.434-.697h-.001zm-25.824 5.13 3.134-8.378h1.507l3.05 8.371h-1.488l-.85-2.17h-2.967l-.739 2.178h-1.647zm2.72-3.487h2.313l-1.18-3.078-1.133 3.078zm8.94-1.229s-.52-.428-1.43-.428c-.91 0-.92.43-.92.731 0 .506.63.553 1.425.866.797.313 1.38.472 1.38 1.745 0 1.274-1.187 1.923-2.555 1.824-1.367-.099-1.641-.458-1.641-.458V10.72s1.066.47 1.738.499c.671.029 1.078.007 1.078-.631 0-.639-.532-.536-1.425-.98-.893-.445-1.388-.86-1.388-1.68s.498-1.865 2.308-1.865c1.383 0 1.43.328 1.43.328v1.234zm1.612-2.708 1.404-.484v1.855h1.41v1.166h-1.41v3.247s-.027.52.692.52c.72 0 .705-.496.705-.496v1.21c0 .162-.762.42-1.41.42-1.788 0-1.38-1.423-1.38-1.423V7.47H28.32V6.283h1.199V4.917h-.023zm4.975 1.366v.78s.638-.911 1.44-.911c.395 0 .571.128.571.128v1.36s-.342-.255-.688-.255c-.817 0-1.297.698-1.297 1.218v3.587h-1.516V6.28l1.49.003zm5.128 4.623a1.723 1.723 0 1 0 0-3.446 1.723 1.723 0 0 0 0 3.446zm7.208-5.649a.626.626 0 1 0 0-1.251.626.626 0 0 0 0 1.251zm-3.567 2.574 1.626-1.097v5.381h-1.622l-.009-4.268.005-.016zm2.56-1.563h1.627v5.847h-1.622l-.009-5.378.005-.469zM12.995 4.678c-.277 0-.548-.09-.771-.254L9.279 6.936c.179.39.273.814.275 1.243a3.155 3.155 0 0 1-.065.615l1.465.187a1.618 1.618 0 0 1 3.18.454c0 .91-.733 1.658-1.622 1.658-.851 0-1.559-.682-1.623-1.538l-1.584-.2c-.155.37-.387.702-.68.976l1.871 2.766c.128-.037.26-.055.393-.053a1.566 1.566 0 1 1-.917.32l-1.806-2.67a2.767 2.767 0 0 1-1.478.412 2.87 2.87 0 0 1-1.66-.535L2.89 12.402c.11.201.168.426.17.655a1.354 1.354 0 0 1-1.336 1.363 1.363 1.363 0 1 1 0-2.726c.285-.006.563.089.785.267l2.082-1.777A2.903 2.903 0 0 1 3.86 8.66l-.81-.107a1.543 1.543 0 0 1-1.519 1.39 1.564 1.564 0 0 1 0-3.128c.69 0 1.293.467 1.465 1.136l.825.107A2.998 2.998 0 0 1 4.908 5.88L3.192 3.341a1.776 1.776 0 0 1-.707.16 1.73 1.73 0 0 1-1.714-1.75C.771.787 1.543 0 2.485 0A1.73 1.73 0 0 1 4.2 1.751a1.785 1.785 0 0 1-.537 1.27L5.39 5.573a2.84 2.84 0 0 1 3.586.871l2.853-2.432a1.324 1.324 0 0 1-.183-.684 1.336 1.336 0 0 1 2.67 0 1.336 1.336 0 0 1-1.32 1.35zm-5.732-.2A1.363 1.363 0 1 1 8.6 3.113a1.354 1.354 0 0 1-1.338 1.363h.002zm-.957 8.178a1.363 1.363 0 1 1-1.335 1.363 1.355 1.355 0 0 1 1.335-1.363z"/>
        <path d="M12.995 4.678c-.277 0-.548-.09-.771-.254L9.279 6.936c.179.39.273.814.275 1.243-.002.337-.06.67-.17.99l1.505.2a1.632 1.632 0 0 0 3.23-.105.881.881 0 0 1 .013.187c0 .909-.733 1.657-1.623 1.657-.85 0-1.558-.681-1.622-1.537l-1.584-.2c-.155.37-.387.702-.68.975l1.871 2.767c.128-.038.26-.056.393-.054a1.547 1.547 0 1 1-.55.107l-1.832-2.715a2.825 2.825 0 0 1-3.478.133l-2.136 1.832c.11.2.168.425.17.654a1.354 1.354 0 0 1-1.336 1.363 1.326 1.326 0 0 1-1.033-.507c.24.198.54.307.85.31a1.354 1.354 0 0 0 1.336-1.364 1.39 1.39 0 0 0-.34-.909L4.606 10.2a2.907 2.907 0 0 1-.733-1.523l-.811-.107a1.543 1.543 0 0 1-1.519 1.39A1.55 1.55 0 0 1 .01 8.393a1.07 1.07 0 0 1 .013-.2 1.543 1.543 0 0 0 3.036.16v.013l.773.108a2.938 2.938 0 0 1 1.426-2.807l-1.7-2.513c.276-.334.429-.753.432-1.187C3.99.962 3.205.161 2.236.161a1.515 1.515 0 0 0-.654.134c.27-.17.583-.263.903-.268A1.73 1.73 0 0 1 4.2 1.777a1.785 1.785 0 0 1-.537 1.27L5.39 5.6a2.84 2.84 0 0 1 3.586.869l2.853-2.433c.28.206.62.314.968.308.772 0 1.41-.52 1.518-1.188a1.349 1.349 0 0 1-1.32 1.521zM6.7 5.453A2.368 2.368 0 0 0 4.5 6.896c-.366.856 2.264.695 2.735 1.751.288.641-.55 1.35-.55 1.737 0 .28.747.297 1.074.149.955-.428 1.61-1.217 1.61-2.353a2.676 2.676 0 0 0-2.67-2.727zm.562-.976a1.363 1.363 0 1 1 1.336-1.363A1.354 1.354 0 0 1 7.26 4.477zm-.955 10.518a1.347 1.347 0 0 0 1.322-1.163 1.336 1.336 0 1 1-2.644 0 1.347 1.347 0 0 0 1.322 1.163z"/>
        <path d="M6.699 5.4h-.026c-1.453.013-2.63 1.216-2.644 2.686v.026a.903.903 0 1 0 1.806.039c0-3.568 2.745-1.604 2.63-1.91-.183-.454-1.109-.842-1.766-.842zM2.302.187h-.013A1.41 1.41 0 0 0 1.15 1.79v.014a.472.472 0 0 0 .537.4.486.486 0 0 0 .392-.534C1.818-.04 2.982.601 2.982.415c0-.12-.353-.278-.68-.227zM1.215 8.406c.053-1.724 1.074-.881 1.113-1.068.026-.135-.287-.348-.628-.362h-.013A1.396 1.396 0 0 0 .277 8.34v.014a.467.467 0 0 0 .458.495.46.46 0 0 0 .48-.442zm9.424 4.811c-.68.12-1.14.762-1.035 1.444v.013a.42.42 0 0 0 .485.361.432.432 0 0 0 .353-.48c-.17-1.365.812-.965.812-1.123 0-.12-.315-.268-.616-.215zm2.825-4.77a1.241 1.241 0 0 0-1.766-.148l-.013.014a.437.437 0 0 0-.053.615.424.424 0 0 0 .59.066c1.059-.855 1.242.214 1.386.12.105-.066.066-.413-.144-.667zm-6.647 4.476a1.143 1.143 0 0 0-1.492.455v.014a.352.352 0 0 0 .144.494c.178.09.397.025.497-.149.615-1.002 1.073-.24 1.151-.347.079-.092-.065-.346-.3-.467zm-4.803-1.096a1.147 1.147 0 0 0-1.336.79v.012a.345.345 0 0 0 .249.441.407.407 0 0 0 .458-.254c.366-1.122.981-.494 1.047-.614.027-.093-.156-.308-.418-.375zm11.464-9.622a1.159 1.159 0 0 0-1.521.615v.014a.395.395 0 0 0 .209.52.391.391 0 0 0 .51-.201c.52-1.15 1.1-.348 1.178-.481.056-.079-.117-.36-.376-.467zM6.306 3.421a.279.279 0 0 0 .406.094.302.302 0 0 0 .105-.4c-.445-.736.262-.83.222-.937-.026-.08-.262-.08-.445.027h-.013a.925.925 0 0 0-.275 1.216z"/>
    </g>
</svg>
