<svg width="56" height="15" viewBox="0 0 56 15" xmlns="http://www.w3.org/2000/svg" xmlns:xlink="http://www.w3.org/1999/xlink">
    <defs>
        <path id="lkegivsh4a" d="M0 0h8.056v9.722H0z"/>
        <path d="M4.187 0C4.8 0 5.384.141 5.899.408a.78.78 0 0 1 .193 1.237.759.759 0 0 1-.857.157 2.216 2.216 0 0 0-1.044-.251c-.64 0-1.348.345-1.78.783-1.236 1.25-1.187 2.577.146 3.946l.034.034c.083.084.141.107.163.107.015 0 .056-.016.113-.073L6.551 2.62l1.351-1.365A4.114 4.114 0 0 1 10.836.018h.013c1.106 0 2.146.435 2.93 1.224A4.154 4.154 0 0 1 15 4.182c.001 1.15-.467 2.26-1.32 3.122l-4.958 5.012a1.725 1.725 0 0 1-1.18.462c-.468 0-.908-.184-1.237-.518L3.828 9.755a.78.78 0 0 1 .01-1.083.759.759 0 0 1 1.072-.011l2.477 2.505c.082.083.229.083.31 0l.145-.146.188-.19.16-.162.056-.057.177-.179.189-.191.268-.272.07-.07.142-.144.444-.45.308-.31.078-.08.314-.317.079-.08.394-.399.079-.08.539-.545.075-.076.436-.44.401-.407.358-.361c.564-.57.874-1.29.873-2.027-.001-.69-.275-1.346-.77-1.844a2.596 2.596 0 0 0-1.852-.773 2.6 2.6 0 0 0-1.858.778L3.95 7.443l-.011.01-.011.011a1.679 1.679 0 0 1-1.173.504c-.453 0-.884-.193-1.245-.56C.59 6.48.07 5.45 0 4.422v-.48c.065-.956.52-1.884 1.329-2.702C2.049.512 3.149 0 4.187 0z" id="n3y9z15pxc"/>
        <path d="M.549.549c1.908 1.907-1.903-1.903 0 0" id="097wnjkkwf"/>
        <linearGradient x1="5.408%" y1="50.89%" x2="22.221%" y2="46.554%" id="22kvt8il5d">
            <stop stop-color="#6C2A6C" offset="0%"/>
            <stop stop-color="#C61E5F" offset="100%"/>
        </linearGradient>
        <linearGradient x1="49.879%" y1="50.118%" x2="50.127%" y2="49.87%" id="my9x92ilqg">
            <stop stop-color="#6C2A6C" offset="0%"/>
            <stop stop-color="#C61E5F" offset="100%"/>
        </linearGradient>
    </defs>
    <g fill="none" fill-rule="evenodd">
        <g transform="translate(47.444 4.167)">
            <mask id="biapbkdrab" fill="#fff">
                <use xlink:href="#lkegivsh4a"/>
            </mask>
            <path d="M5.337 4.06c-.06.237-.31 1.606-1.55 1.606-1.383 0-.84-1.95-.718-2.342.155-.497.858-2.258 2.394-2.258.31 0 .49.078.561.124l-.687 2.87zm-.665 2.746c-.08.265-.448 2.017-2.12 2.017-1.044 0-1.172-.676-1.172-.942 0-.786 1.184-.934 1.77-1.007.341-.046.657-.11.946-.192a1.77 1.77 0 0 0 .71-.37l-.134.494zM6.982.42C6.89.367 6.38.036 5.416.036c-2.62 0-3.76 2.25-3.99 2.794-.23.545-.376 1.095-.392 1.7-.034 1.281.374 1.614.583 1.726-1.056.266-1.596.806-1.617 1.62-.008.293.05.554.174.783.124.229.678 1.072 2.387 1.072 2.69 0 3.458-1.857 3.64-2.273.181-.417.343-.918.484-1.504L8.056.003S7.486-.063 6.98.42z" fill="#4C2555" mask="url(#biapbkdrab)"/>
        </g>
        <path d="M23.896 2.684c.89 0 1.482.192 1.838.732.412-.173.877-.643.877-1.063 0-.742-.956-.964-2.046-.964-2.085 0-4.095 1.415-4.095 3.368 0 1.421 1.351 1.974 2.452 2.691.343.224.83.527.83 1.04 0 .837-.635 1.555-1.764 1.555-.93 0-1.757-.336-1.913-.982a1.015 1.015 0 0 1-.027-.433c-.77.21-1.215.872-1.215 1.366 0 .89 1.441 1.395 2.57 1.395 2.832 0 4.331-1.259 4.331-3.274 0-.877-.425-1.452-1.102-2.02-1.794-1.287-2.382-1.3-2.382-2.055 0-.668.703-1.356 1.646-1.356M44.428 10.414c-.63-.02-.865-.594-.865-1.37 0-1.513.76-3.93 1.925-3.891.629.02.838.535.838 1.31 0 1.513-.746 3.988-1.898 3.95zM28.454 6.762c.28-.514.877-1.257 1.713-1.257.233 0 .407.064.524.19a.67.67 0 0 1 .175.47c0 1.111-1.114 1.432-1.972 1.432-.22.006-.662-.065-.755-.084.075-.262.183-.51.315-.75zm17.427-2.57c-1.14-.037-2.16.411-2.973 1.293-.825.946-1.27 2.076-1.27 3.352 0 .17.013.333.037.49-.084.062-.398.331-.772.444-.34.102-.484.017-.545-.128-.054-.163-.042-.378-.042-.426.188-1.568.966-4.287 1.176-4.931.17-.592.45-1.44.591-1.685.229-.445.452-.474.328-.565-.313-.23-.736-.372-1.061-.37-.197.002-.433.027-.642.172-.21.144-.381.367-.445.565-.701 2.172-1.538 5.712-1.615 6.178-.31.363-.651.735-1.025 1.078-.478.385-.606.08-.751-.1-.002-.003-.004-.003-.006-.005a7.574 7.574 0 0 1-.851-1.668c1.456-1.476 2.59-2.666 2.59-3.364 0-.355-.235-.525-.785-.525-.065 0-.537-.014-.537.079 0 .578-.524 1.46-1.716 2.696a19.933 19.933 0 0 1-.445-1.579c-.118-.513-.405-1.012-.916-1.012-.537 0-1.127.355-1.336.815.422.294 1.109 2.733 1.248 3.004-1 .869-1.823 1.323-2.632 1.667-.975.415-2.535.763-3.18.115a1.289 1.289 0 0 1-.38-.81c-.008-.257.037-.313.037-.313s.84.087 1.197.084c.503-.002.87-.065 1.288-.196.42-.131 2.028-.711 2.028-2.345 0-.741-.34-2.01-2.142-2.01-2.662 0-3.742 2.436-3.957 2.979a4.546 4.546 0 0 0-.321 1.685c0 1.13.547 2.533 3.106 2.533 1.848 0 3.17-.72 4.075-1.333.751-.509 1.234-.923 1.3-.978.004-.004.006-.01.009-.014.587 1.47.993 2.325 1.637 2.325.525 0 1.144-.406 1.64-.872.22-.187.435-.396.642-.615-.043.956.569 1.487 1.169 1.487.491 0 1.565-.597 2.243-1.361.37.816 1.142 1.3 2.157 1.333 2.332.076 4.244-2.361 4.244-4.834 0-1.46-.97-2.289-2.397-2.335z" fill="#4C2555"/>
        <g transform="translate(.5)">
            <mask id="x8peihtcee" fill="#fff">
                <use xlink:href="#n3y9z15pxc"/>
            </mask>
            <path fill="url(#22kvt8il5d)" mask="url(#x8peihtcee)" d="M0 13.932h54.631V0H.001z"/>
        </g>
        <g transform="translate(27.45 2.2)">
            <mask id="l0pzyrmv3h" fill="#fff">
                <use xlink:href="#097wnjkkwf"/>
            </mask>
            <path d="M.549.549c1.908 1.907-1.903-1.903 0 0" fill="url(#my9x92ilqg)" mask="url(#l0pzyrmv3h)"/>
        </g>
    </g>
</svg>
